<mxfile host="app.diagrams.net" agent="Mozilla/5.0 (Windows NT 10.0; Win64; x64) AppleWebKit/537.36 (KHTML, like Gecko) Chrome/134.0.0.0 Safari/537.36" version="26.1.2">
  <diagram name="Page-1" id="G-LVQqgMIyGB1L8jalOc">
    <mxGraphModel dx="3436" dy="1334" grid="1" gridSize="10" guides="1" tooltips="1" connect="1" arrows="1" fold="1" page="1" pageScale="1" pageWidth="850" pageHeight="1100" math="0" shadow="0">
      <root>
        <mxCell id="0" />
        <mxCell id="1" parent="0" />
        <mxCell id="rUwmGePHA3HEf2LdHRI8-30" style="edgeStyle=orthogonalEdgeStyle;rounded=0;orthogonalLoop=1;jettySize=auto;html=1;dashed=1;" edge="1" parent="1" source="rUwmGePHA3HEf2LdHRI8-21" target="rUwmGePHA3HEf2LdHRI8-25">
          <mxGeometry relative="1" as="geometry" />
        </mxCell>
        <mxCell id="rUwmGePHA3HEf2LdHRI8-21" value="" style="rounded=0;whiteSpace=wrap;html=1;align=left;" vertex="1" parent="1">
          <mxGeometry x="310" y="640" width="310" height="200" as="geometry" />
        </mxCell>
        <mxCell id="rUwmGePHA3HEf2LdHRI8-19" value="" style="rounded=0;whiteSpace=wrap;html=1;align=left;" vertex="1" parent="1">
          <mxGeometry x="20" y="640" width="260" height="160" as="geometry" />
        </mxCell>
        <mxCell id="rUwmGePHA3HEf2LdHRI8-23" style="edgeStyle=orthogonalEdgeStyle;rounded=0;orthogonalLoop=1;jettySize=auto;html=1;entryX=1;entryY=0;entryDx=0;entryDy=0;" edge="1" parent="1" source="rUwmGePHA3HEf2LdHRI8-3" target="rUwmGePHA3HEf2LdHRI8-22">
          <mxGeometry relative="1" as="geometry" />
        </mxCell>
        <mxCell id="rUwmGePHA3HEf2LdHRI8-3" value="Delta Lake" style="rounded=1;whiteSpace=wrap;html=1;" vertex="1" parent="1">
          <mxGeometry x="400" y="480" width="120" height="60" as="geometry" />
        </mxCell>
        <mxCell id="rUwmGePHA3HEf2LdHRI8-6" style="edgeStyle=orthogonalEdgeStyle;rounded=0;orthogonalLoop=1;jettySize=auto;html=1;entryX=0.5;entryY=0;entryDx=0;entryDy=0;" edge="1" parent="1" source="rUwmGePHA3HEf2LdHRI8-4" target="rUwmGePHA3HEf2LdHRI8-5">
          <mxGeometry relative="1" as="geometry" />
        </mxCell>
        <mxCell id="rUwmGePHA3HEf2LdHRI8-4" value="&lt;span style=&quot;text-wrap-mode: nowrap; background-color: rgb(255, 255, 255);&quot;&gt;Azure Data Lake Storage&lt;/span&gt;" style="rounded=1;whiteSpace=wrap;html=1;shape=ellipse;perimeter=ellipsePerimeter;" vertex="1" parent="1">
          <mxGeometry x="380" y="680" width="160" height="60" as="geometry" />
        </mxCell>
        <mxCell id="rUwmGePHA3HEf2LdHRI8-5" value="&lt;span style=&quot;text-wrap-mode: nowrap;&quot;&gt;Azure S&lt;/span&gt;&lt;span style=&quot;color: light-dark(rgb(0, 0, 0), rgb(255, 255, 255)); text-wrap-mode: nowrap; background-color: transparent;&quot;&gt;torage Account Blob&lt;/span&gt;" style="rounded=1;whiteSpace=wrap;html=1;" vertex="1" parent="1">
          <mxGeometry x="380" y="760" width="160" height="60" as="geometry" />
        </mxCell>
        <mxCell id="rUwmGePHA3HEf2LdHRI8-9" style="edgeStyle=orthogonalEdgeStyle;rounded=0;orthogonalLoop=1;jettySize=auto;html=1;entryX=0.5;entryY=0;entryDx=0;entryDy=0;" edge="1" parent="1" source="rUwmGePHA3HEf2LdHRI8-8" target="rUwmGePHA3HEf2LdHRI8-3">
          <mxGeometry relative="1" as="geometry" />
        </mxCell>
        <mxCell id="rUwmGePHA3HEf2LdHRI8-15" style="edgeStyle=orthogonalEdgeStyle;rounded=0;orthogonalLoop=1;jettySize=auto;html=1;exitX=0;exitY=0.5;exitDx=0;exitDy=0;entryX=0.5;entryY=0;entryDx=0;entryDy=0;" edge="1" parent="1" source="rUwmGePHA3HEf2LdHRI8-8" target="rUwmGePHA3HEf2LdHRI8-11">
          <mxGeometry relative="1" as="geometry" />
        </mxCell>
        <mxCell id="rUwmGePHA3HEf2LdHRI8-8" value="Databrick" style="rounded=1;whiteSpace=wrap;html=1;" vertex="1" parent="1">
          <mxGeometry x="230" y="390" width="120" height="60" as="geometry" />
        </mxCell>
        <mxCell id="rUwmGePHA3HEf2LdHRI8-24" style="edgeStyle=orthogonalEdgeStyle;rounded=0;orthogonalLoop=1;jettySize=auto;html=1;entryX=0.5;entryY=0;entryDx=0;entryDy=0;" edge="1" parent="1" source="rUwmGePHA3HEf2LdHRI8-11" target="rUwmGePHA3HEf2LdHRI8-19">
          <mxGeometry relative="1" as="geometry" />
        </mxCell>
        <mxCell id="rUwmGePHA3HEf2LdHRI8-11" value="Lake Warehouse" style="rounded=1;whiteSpace=wrap;html=1;" vertex="1" parent="1">
          <mxGeometry x="90" y="480" width="120" height="60" as="geometry" />
        </mxCell>
        <mxCell id="rUwmGePHA3HEf2LdHRI8-13" value="SQL Server" style="html=1;verticalLabelPosition=bottom;align=center;labelBackgroundColor=#ffffff;verticalAlign=top;strokeWidth=2;strokeColor=#0080F0;shadow=0;dashed=0;shape=mxgraph.ios7.icons.data;" vertex="1" parent="1">
          <mxGeometry x="80" y="680" width="50" height="50" as="geometry" />
        </mxCell>
        <mxCell id="rUwmGePHA3HEf2LdHRI8-14" value="Synapse" style="html=1;verticalLabelPosition=bottom;align=center;labelBackgroundColor=#ffffff;verticalAlign=top;strokeWidth=2;strokeColor=#0080F0;shadow=0;dashed=0;shape=mxgraph.ios7.icons.data;" vertex="1" parent="1">
          <mxGeometry x="180" y="680" width="50" height="50" as="geometry" />
        </mxCell>
        <mxCell id="rUwmGePHA3HEf2LdHRI8-20" value="&lt;span style=&quot;text-align: left;&quot;&gt;Structured&lt;/span&gt;" style="text;html=1;align=center;verticalAlign=middle;whiteSpace=wrap;rounded=0;" vertex="1" parent="1">
          <mxGeometry x="20" y="640" width="60" height="30" as="geometry" />
        </mxCell>
        <mxCell id="rUwmGePHA3HEf2LdHRI8-22" value="&lt;span style=&quot;text-align: left;&quot;&gt;Structured &amp;amp; Unstructured&lt;/span&gt;" style="text;html=1;align=center;verticalAlign=middle;whiteSpace=wrap;rounded=0;" vertex="1" parent="1">
          <mxGeometry x="310" y="640" width="150" height="30" as="geometry" />
        </mxCell>
        <mxCell id="rUwmGePHA3HEf2LdHRI8-25" value="Key features:&amp;nbsp;&lt;div&gt;storage row data&lt;/div&gt;&lt;div&gt;(Metadata)&lt;br&gt;as a file&lt;/div&gt;" style="ellipse;shape=cloud;whiteSpace=wrap;html=1;" vertex="1" parent="1">
          <mxGeometry x="730" y="670" width="150" height="90" as="geometry" />
        </mxCell>
        <mxCell id="rUwmGePHA3HEf2LdHRI8-31" value="Key features:&amp;nbsp;&lt;div&gt;storage row data&lt;/div&gt;&lt;div&gt;(Metadata)&lt;br&gt;in DB&lt;/div&gt;" style="ellipse;shape=cloud;whiteSpace=wrap;html=1;" vertex="1" parent="1">
          <mxGeometry x="-250" y="660" width="150" height="90" as="geometry" />
        </mxCell>
        <mxCell id="rUwmGePHA3HEf2LdHRI8-32" style="edgeStyle=orthogonalEdgeStyle;rounded=0;orthogonalLoop=1;jettySize=auto;html=1;entryX=0.96;entryY=0.7;entryDx=0;entryDy=0;entryPerimeter=0;dashed=1;" edge="1" parent="1" source="rUwmGePHA3HEf2LdHRI8-19" target="rUwmGePHA3HEf2LdHRI8-31">
          <mxGeometry relative="1" as="geometry" />
        </mxCell>
      </root>
    </mxGraphModel>
  </diagram>
</mxfile>
